<svg xmlns="http://www.w3.org/2000/svg" xmlns:xlink="http://www.w3.org/1999/xlink" width="500" zoomAndPan="magnify" viewBox="0 0 375 374.999991" height="500" preserveAspectRatio="xMidYMid meet" version="1.0"><defs><g/><clipPath id="ab4b4d99b0"><path d="M 7.066406 142.457031 L 367.808594 142.457031 L 367.808594 241.457031 L 7.066406 241.457031 Z M 7.066406 142.457031 " clip-rule="nonzero"/></clipPath><clipPath id="15591ba411"><path d="M 16.796875 151.785156 L 187.269531 151.785156 L 187.269531 232.390625 L 16.796875 232.390625 Z M 16.796875 151.785156 " clip-rule="nonzero"/></clipPath></defs><g clip-path="url(#ab4b4d99b0)"><path stroke-linecap="butt" transform="matrix(0.750707, 0, 0, 0.748052, 7.064776, 142.456075)" fill="none" stroke-linejoin="miter" d="M 0.00217221 0.00127772 L 480.538637 0.00127772 L 480.538637 132.345029 L 0.00217221 132.345029 L 0.00217221 0.00127772 " stroke="#ffffff" stroke-width="6" stroke-opacity="1" stroke-miterlimit="4"/></g><g clip-path="url(#15591ba411)"><path fill="#000000" d="M 16.796875 151.785156 L 188.238281 151.785156 L 188.238281 233.21875 L 16.796875 233.21875 Z M 16.796875 151.785156 " fill-opacity="1" fill-rule="nonzero"/></g><g fill="#ffffff" fill-opacity="1"><g transform="translate(25.899169, 201.900112)"><g><path d="M 8.242188 0 L 10.921875 0 L 10.921875 -18.738281 L 18.101562 -18.738281 L 18.101562 -21.292969 L 1.035156 -21.292969 L 1.035156 -18.738281 L 8.242188 -18.738281 Z M 8.242188 0 "/></g></g></g><g fill="#ffffff" fill-opacity="1"><g transform="translate(47.368322, 201.900112)"><g><path d="M 0.515625 0 L 3.375 0 L 5.324219 -4.835938 L 15.695312 -4.835938 L 17.703125 0 L 20.535156 0 L 11.773438 -21.292969 L 9.277344 -21.292969 Z M 6.359375 -7.332031 L 10.527344 -17.554688 L 14.691406 -7.332031 Z M 6.359375 -7.332031 "/></g></g></g><g fill="#ffffff" fill-opacity="1"><g transform="translate(70.722754, 201.900112)"><g><path d="M 8.242188 0 L 10.921875 0 L 10.921875 -18.738281 L 18.101562 -18.738281 L 18.101562 -21.292969 L 1.035156 -21.292969 L 1.035156 -18.738281 L 8.242188 -18.738281 Z M 8.242188 0 "/></g></g></g><g fill="#ffffff" fill-opacity="1"><g transform="translate(92.191909, 201.900112)"><g><path d="M 0.515625 0 L 3.375 0 L 5.324219 -4.835938 L 15.695312 -4.835938 L 17.703125 0 L 20.535156 0 L 11.773438 -21.292969 L 9.277344 -21.292969 Z M 6.359375 -7.332031 L 10.527344 -17.554688 L 14.691406 -7.332031 Z M 6.359375 -7.332031 "/></g></g></g><g fill="#ffffff" fill-opacity="1"><g transform="translate(115.54634, 201.900112)"><g><path d="M 8.519531 0 L 11.132812 0 L 11.132812 -7.667969 L 19.132812 -21.292969 L 16.121094 -21.292969 L 9.855469 -10.527344 L 7.089844 -15.332031 L 3.621094 -21.292969 L 0.515625 -21.292969 L 8.519531 -7.667969 Z M 8.519531 0 "/></g></g></g><g fill="#ffffff" fill-opacity="1"><g transform="translate(137.502009, 201.900112)"><g><path d="M 3.101562 0 L 16.367188 0 L 16.367188 -2.496094 L 5.78125 -2.496094 L 5.78125 -9.613281 L 15.269531 -9.613281 L 15.269531 -12.078125 L 5.78125 -12.078125 L 5.78125 -18.800781 L 16.03125 -18.800781 L 16.03125 -21.292969 L 3.101562 -21.292969 Z M 3.101562 0 "/></g></g></g><g fill="#ffffff" fill-opacity="1"><g transform="translate(158.150154, 201.900112)"><g><path d="M 9.003906 0 L 11.5 0 L 19.957031 -21.292969 L 17.125 -21.292969 L 13.566406 -12.320312 L 10.25 -3.863281 L 6.90625 -12.320312 L 3.375 -21.292969 L 0.515625 -21.292969 Z M 9.003906 0 "/></g></g></g><g fill="#ffffff" fill-opacity="1"><g transform="translate(188.609517, 204.645419)"><g><path d="M 12.574219 0.582031 C 19.304688 0.582031 23.289062 -2.59375 23.289062 -7.929688 C 23.289062 -12.417969 20.386719 -15.046875 13.808594 -16.519531 C 10.328125 -17.292969 9.050781 -18.144531 9.050781 -19.535156 C 9.050781 -20.851562 10.210938 -21.664062 12.03125 -21.664062 C 14.195312 -21.664062 15.433594 -20.542969 15.433594 -18.492188 L 22.785156 -18.492188 C 22.785156 -24.0625 18.53125 -27.660156 11.875 -27.660156 C 5.492188 -27.660156 1.546875 -24.488281 1.546875 -19.382812 C 1.546875 -14.816406 4.527344 -11.992188 10.636719 -10.832031 C 13.925781 -10.175781 15.511719 -9.167969 15.511719 -7.621094 C 15.511719 -6.265625 14.351562 -5.492188 12.457031 -5.492188 C 10.210938 -5.492188 8.898438 -6.691406 8.898438 -8.78125 L 1.355469 -8.78125 C 1.355469 -2.941406 5.53125 0.582031 12.574219 0.582031 Z M 12.574219 0.582031 "/></g></g></g><g fill="#ffffff" fill-opacity="1"><g transform="translate(213.320585, 204.645419)"><g><path d="M 19.03125 0 L 26.847656 0 L 26.847656 -27.078125 L 19.03125 -27.078125 L 19.03125 -17.371094 L 10.675781 -17.371094 L 10.675781 -27.078125 L 2.863281 -27.078125 L 2.863281 0 L 10.675781 0 L 10.675781 -10.175781 L 19.03125 -10.175781 Z M 19.03125 0 "/></g></g></g><g fill="#ffffff" fill-opacity="1"><g transform="translate(243.020263, 204.645419)"><g><path d="M 16.054688 0.582031 C 24.679688 0.582031 30.792969 -5.261719 30.792969 -13.539062 C 30.792969 -21.816406 24.679688 -27.660156 16.054688 -27.660156 C 7.425781 -27.660156 1.316406 -21.816406 1.316406 -13.539062 C 1.316406 -5.261719 7.425781 0.582031 16.054688 0.582031 Z M 9.246094 -13.539062 C 9.246094 -17.601562 12.070312 -20.425781 16.054688 -20.425781 C 20.078125 -20.425781 22.863281 -17.601562 22.863281 -13.539062 C 22.863281 -9.476562 20.078125 -6.652344 16.054688 -6.652344 C 12.070312 -6.652344 9.246094 -9.476562 9.246094 -13.539062 Z M 9.246094 -13.539062 "/></g></g></g><g fill="#ffffff" fill-opacity="1"><g transform="translate(275.156249, 204.645419)"><g><path d="M 16.054688 0.582031 L 16.480469 0.582031 L 17.175781 2.203125 C 18.605469 5.53125 21.238281 7.234375 25.066406 7.234375 L 29.089844 7.234375 L 29.089844 1.742188 L 27.117188 1.742188 C 24.914062 1.742188 24.332031 1.355469 23.597656 -0.308594 L 23.289062 -1.042969 C 27.890625 -3.289062 30.792969 -7.851562 30.792969 -13.539062 C 30.792969 -21.816406 24.679688 -27.660156 16.054688 -27.660156 C 7.425781 -27.660156 1.316406 -21.816406 1.316406 -13.539062 C 1.316406 -5.261719 7.425781 0.582031 16.054688 0.582031 Z M 9.246094 -13.539062 C 9.246094 -17.601562 12.070312 -20.425781 16.054688 -20.425781 C 20.078125 -20.425781 22.863281 -17.601562 22.863281 -13.539062 C 22.863281 -9.476562 20.078125 -6.652344 16.054688 -6.652344 C 12.070312 -6.652344 9.246094 -9.476562 9.246094 -13.539062 Z M 9.246094 -13.539062 "/></g></g></g><g fill="#ffffff" fill-opacity="1"><g transform="translate(307.292236, 204.645419)"><g><path d="M 0.195312 0 L 8.472656 0 L 9.941406 -3.828125 L 19.1875 -3.828125 L 20.65625 0 L 28.976562 0 L 18.453125 -27.078125 L 10.714844 -27.078125 Z M 11.566406 -9.554688 L 14.585938 -17.949219 L 17.601562 -9.554688 Z M 11.566406 -9.554688 "/></g></g></g><g fill="#ffffff" fill-opacity="1"><g transform="translate(336.450513, 204.645419)"><g><path d="M 2.863281 0 L 10.597656 0 L 10.597656 -13.808594 L 20.890625 0 L 27.234375 0 L 27.234375 -27.078125 L 19.535156 -27.078125 L 19.535156 -13.347656 L 9.246094 -27.078125 L 2.863281 -27.078125 Z M 2.863281 0 "/></g></g></g></svg>